<svg width="24" height="24" viewBox="0 0 24 24" fill="none" xmlns="http://www.w3.org/2000/svg">
<path d="M22.5 19.1252H21.375V10.8331C21.3746 10.5742 21.3208 10.3181 21.2169 10.081C21.113 9.84389 20.9613 9.63074 20.7712 9.45493L13.2759 2.37961L13.2609 2.36555C12.9165 2.05032 12.4665 1.87549 11.9995 1.87549C11.5326 1.87549 11.0826 2.05032 10.7381 2.36555L10.7222 2.37961L3.22875 9.45493C3.03872 9.63074 2.88702 9.84389 2.78313 10.081C2.67924 10.3181 2.62541 10.5742 2.625 10.8331V19.1252H1.5C1.20163 19.1252 0.915483 19.2438 0.704505 19.4547C0.493526 19.6657 0.375 19.9519 0.375 20.2502C0.375 20.5486 0.493526 20.8348 0.704505 21.0457C0.915483 21.2567 1.20163 21.3752 1.5 21.3752H22.5C22.7984 21.3752 23.0845 21.2567 23.2955 21.0457C23.5065 20.8348 23.625 20.5486 23.625 20.2502C23.625 19.9519 23.5065 19.6657 23.2955 19.4547C23.0845 19.2438 22.7984 19.1252 22.5 19.1252ZM4.875 10.9952L12 4.26868L19.125 10.9952V19.1252H15.375V15.0002C15.375 14.754 15.3265 14.5102 15.2323 14.2827C15.138 14.0552 14.9999 13.8485 14.8258 13.6744C14.6517 13.5003 14.445 13.3622 14.2175 13.268C13.99 13.1737 13.7462 13.1252 13.5 13.1252H10.5C10.0027 13.1252 9.52581 13.3228 9.17418 13.6744C8.82254 14.026 8.625 14.503 8.625 15.0002V19.1252H4.875V10.9952ZM13.125 19.1252H10.875V15.3752H13.125V19.1252Z" fill="#1A1A1A"/>
</svg>
