<svg width="64" height="64" viewBox="0 0 64 64" fill="none" xmlns="http://www.w3.org/2000/svg">
<path opacity="0.2" d="M32 32.2724V57.9999C31.6641 57.9985 31.3339 57.9126 31.04 57.7499L9.04 45.7049C8.72586 45.533 8.46363 45.28 8.28069 44.9721C8.09775 44.6643 8.00081 44.313 8 43.9549V20.0449C8.00079 19.7648 8.06041 19.488 8.175 19.2324L32 32.2724Z" fill="#B3B3B3"/>
<path d="M55.92 16.5371L33.92 4.49956C33.3322 4.17476 32.6716 4.00439 32 4.00439C31.3284 4.00439 30.6678 4.17476 30.08 4.49956L8.08 16.5421C7.45172 16.8858 6.92726 17.392 6.56138 18.0076C6.1955 18.6233 6.00163 19.3259 6 20.0421V43.9521C6.00163 44.6682 6.1955 45.3708 6.56138 45.9865C6.92726 46.6022 7.45172 47.1083 8.08 47.4521L30.08 59.4946C30.6678 59.8194 31.3284 59.9897 32 59.9897C32.6716 59.9897 33.3322 59.8194 33.92 59.4946L55.92 47.4521C56.5483 47.1083 57.0727 46.6022 57.4386 45.9865C57.8045 45.3708 57.9984 44.6682 58 43.9521V20.0446C57.9997 19.3271 57.8065 18.6229 57.4405 18.0058C57.0746 17.3887 56.5494 16.8814 55.92 16.5371ZM32 7.99956L52.085 18.9996L44.6425 23.0746L24.555 12.0746L32 7.99956ZM32 29.9996L11.915 18.9996L20.39 14.3596L40.475 25.3596L32 29.9996ZM10 22.4996L30 33.4446V54.8921L10 43.9546V22.4996ZM54 43.9446L34 54.8921V33.4546L42 29.0771V37.9996C42 38.53 42.2107 39.0387 42.5858 39.4138C42.9609 39.7888 43.4696 39.9996 44 39.9996C44.5304 39.9996 45.0391 39.7888 45.4142 39.4138C45.7893 39.0387 46 38.53 46 37.9996V26.8871L54 22.4996V43.9421V43.9446Z" fill="#B3B3B3"/>
</svg>
