<svg width="24" height="24" viewBox="0 0 24 24" fill="none" xmlns="http://www.w3.org/2000/svg">
<path d="M9.79595 3.7041L17.2959 11.2041C17.4008 11.3086 17.484 11.4328 17.5408 11.5696C17.5976 11.7063 17.6268 11.8529 17.6268 12.001C17.6268 12.149 17.5976 12.2957 17.5408 12.4324C17.484 12.5691 17.4008 12.6933 17.2959 12.7979L9.79595 20.2979C9.5846 20.5092 9.29796 20.6279 8.99907 20.6279C8.70019 20.6279 8.41354 20.5092 8.2022 20.2979C7.99085 20.0865 7.87212 19.7999 7.87212 19.501C7.87212 19.2021 7.99085 18.9154 8.2022 18.7041L14.9063 12L8.20126 5.29598C7.98992 5.08463 7.87119 4.79799 7.87119 4.4991C7.87119 4.20022 7.98992 3.91357 8.20126 3.70223C8.41261 3.49088 8.69925 3.37215 8.99814 3.37215C9.29702 3.37215 9.58367 3.49088 9.79501 3.70223L9.79595 3.7041Z" fill="#B3B3B3"/>
</svg>
