<svg width="24" height="24" viewBox="0 0 24 24" fill="none" xmlns="http://www.w3.org/2000/svg">
<path d="M13.125 20.25C13.125 20.5484 13.2435 20.8345 13.4545 21.0455C13.6655 21.2565 13.9516 21.375 14.25 21.375H19.5C19.9973 21.375 20.4742 21.1775 20.8258 20.8258C21.1775 20.4742 21.375 19.9973 21.375 19.5V4.5C21.375 4.00272 21.1775 3.52581 20.8258 3.17417C20.4742 2.82254 19.9973 2.625 19.5 2.625H14.25C13.9516 2.625 13.6655 2.74353 13.4545 2.9545C13.2435 3.16548 13.125 3.45163 13.125 3.75C13.125 4.04837 13.2435 4.33452 13.4545 4.5455C13.6655 4.75647 13.9516 4.875 14.25 4.875H19.125V19.125H14.25C13.9516 19.125 13.6655 19.2435 13.4545 19.4545C13.2435 19.6655 13.125 19.9516 13.125 20.25ZM2.95406 11.2041L6.70406 7.45406C6.91541 7.24272 7.20205 7.12399 7.50094 7.12399C7.79982 7.12399 8.08647 7.24272 8.29781 7.45406C8.50916 7.66541 8.62789 7.95205 8.62789 8.25094C8.62789 8.54982 8.50916 8.83647 8.29781 9.04781L6.46875 10.875H14.25C14.5484 10.875 14.8345 10.9935 15.0455 11.2045C15.2565 11.4155 15.375 11.7016 15.375 12C15.375 12.2984 15.2565 12.5845 15.0455 12.7955C14.8345 13.0065 14.5484 13.125 14.25 13.125H6.46875L8.29875 14.9541C8.51009 15.1654 8.62883 15.4521 8.62883 15.7509C8.62883 16.0498 8.51009 16.3365 8.29875 16.5478C8.08741 16.7592 7.80076 16.8779 7.50187 16.8779C7.20299 16.8779 6.91634 16.7592 6.705 16.5478L2.955 12.7978C2.85006 12.6934 2.76677 12.5692 2.70991 12.4325C2.65305 12.2958 2.62373 12.1492 2.62364 12.0011C2.62356 11.8531 2.6527 11.7064 2.7094 11.5697C2.7661 11.4329 2.84924 11.3086 2.95406 11.2041Z" fill="#ED1010"/>
</svg>
