<svg width="37" height="12" viewBox="0 0 37 12" fill="none" xmlns="http://www.w3.org/2000/svg">
<g clip-path="url(#clip0_146_3231)">
<path d="M26.3216 1.09096C25.4693 0.780412 24.5685 0.624577 23.6614 0.630794C20.7281 0.630794 18.6564 2.10846 18.6418 4.22963C18.6234 5.78796 20.1139 6.66613 21.2414 7.18679C22.3983 7.72213 22.7851 8.05946 22.7814 8.53796C22.7741 9.26579 21.8574 9.59579 21.0049 9.59579C19.8334 9.59579 19.1936 9.43263 18.2091 9.02379L17.8443 8.85329L17.4281 11.2953C18.1413 11.5923 19.4264 11.8471 20.7538 11.8691C23.8723 11.8691 25.9109 10.4006 25.9348 8.14379C25.9604 6.89896 25.1538 5.95846 23.4561 5.18113C22.4239 4.67696 21.7841 4.33963 21.7841 3.82813C21.7841 3.37529 22.3323 2.89129 23.4781 2.89129C24.2407 2.87284 24.9985 3.01592 25.7019 3.31113L25.9769 3.43396L26.3931 1.07446L26.3216 1.09096ZM33.9336 0.828794H31.6419C30.9288 0.828794 30.3916 1.02496 30.0799 1.73263L25.6726 11.717H28.7911L29.4144 10.0798L33.2204 10.0835C33.3103 10.4666 33.5853 11.717 33.5853 11.717H36.3353L33.9336 0.828794ZM14.4233 0.737127H17.3951L15.5361 11.6308H12.5679L14.4233 0.73346V0.737127ZM6.87909 6.74129L7.18709 8.2538L10.0911 0.828794H13.2389L8.56209 11.7023H5.42159L2.85492 2.49529C2.81335 2.34348 2.71572 2.21309 2.58175 2.13046C1.65665 1.65258 0.676452 1.28993 -0.336914 1.05063L-0.296581 0.821459H4.48659C5.13559 0.847126 5.65809 1.05063 5.83225 1.74363L6.87725 6.74679L6.87909 6.74129ZM30.2669 7.85229L31.4513 4.80529C31.4366 4.83829 31.6951 4.17646 31.8454 3.76763L32.0489 4.70813L32.7364 7.85046H30.2651L30.2669 7.85229Z" fill="#1A1A1A"/>
</g>
<defs>
<clipPath id="clip0_146_3231">
<rect width="37" height="12" fill="white"/>
</clipPath>
</defs>
</svg>
